# xmcd
#
# Track frame offsets:
#	150
#	12704
#	23575
#	36091
#	47974
#	62800
#	75121
#	84526
#	97555
#	111346
#	123666
#	143570
#	173359
#	183879
#	193190
#	211382
#	232157
#	242884
#	253312
#	265243
#	282105
#
# Disc length: 4071
#
# Revision: 1
# Processed by: cddbd v1.5.1PL0 Copyright (c) Steve Scherf et al.
# Submitted via: Axialis_AX_CDPlayer 2.6
# Normalized: r0:DSETVAR1,TDELIM( - )
#
DISCID=200fe515
DTITLE=Various Artist - Stax Of Funk - The Funky Truth
DYEAR=1900
DGENRE=
TTITLE0=Do Me - Jean Knight
TTITLE1=Patch It Up - Roy Lee Johnson
TTITLE2=Turn Your Damper Down - Rufus Thomas
TTITLE3=She's My Old Lady Too - Lee Sain
TTITLE4=Movin' Dancer - Bobby Holley
TTITLE5=Brothers And Sisters (Get Together) - Kim Weston
TTITLE6=Running Out - Mable John
TTITLE7=Slipped And Tripped - The Sweet Inspirations
TTITLE8=Watch The Dog That Brings The Bone - Inez Foxx
TTITLE9=I'll Kill A Brick (About My Man) - Hot Sauce
TTITLE10=Man Never Knows - Chris and Shack
TTITLE11=Eli's Pork Chop - Little Sonny
TTITLE12=Sock Soul - The Bar-Kays
TTITLE13=Grab A Handful - Art Jerry Miller
TTITLE14=Broadway Freeze - Harvey Scales
TTITLE15=Funky Hot Grits - Rufus Thomas
TTITLE16=Hoppin' John - Melvin Van Peebles
TTITLE17=The Dryer - Roy Lee Johnson
TTITLE18=Getting Funky Round Here - Black Nasty
TTITLE19=Life Is Funky - Round Robin Monopoly
TTITLE20=Who Is She (And What Is She To You) - The Soul Children
EXTD=
EXTT0=
EXTT1=
EXTT2=
EXTT3=
EXTT4=
EXTT5=
EXTT6=
EXTT7=
EXTT8=
EXTT9=
EXTT10=
EXTT11=
EXTT12=
EXTT13=
EXTT14=
EXTT15=
EXTT16=
EXTT17=
EXTT18=
EXTT19=
EXTT20=
PLAYORDER=
